<svg xmlns="http://www.w3.org/2000/svg" viewBox="0 0 1280 640" width="1280" height="640">
  <rect x="0" y="0" width="1280" height="640" fill="#FCF6E3"/>
  <g transform="translate(60,42) scale(4.8214286) translate(2,2)">
    <defs>
<clipPath id="clipTop"><path d="M55.023-0.077c-25.971,0-26.25,10.081-26.25,12.156c0,3.148,0,12.594,0,12.594h26.75v3.781 c0,0-27.852,0-37.375,0c-7.949,0-17.938,4.833-17.938,26.25c0,19.673,7.792,27.281,15.656,27.281c2.335,0,9.344,0,9.344,0 s0-9.765,0-13.125c0-5.491,2.721-15.656,15.406-15.656c15.91,0,19.971,0,26.531,0c3.902,0,14.906-1.696,14.906-14.406 c0-13.452,0-17.89,0-24.219C82.054,11.426,81.515-0.077,55.023-0.077z M40.273,8.392c2.662,0,4.813,2.15,4.813,4.813 c0,2.661-2.151,4.813-4.813,4.813s-4.813-2.151-4.813-4.813C35.46,10.542,37.611,8.392,40.273,8.392z"/></clipPath>
<clipPath id="clipBot"><path d="M55.397,109.923c25.959,0,26.282-10.271,26.282-12.156c0-3.148,0-12.594,0-12.594H54.897v-3.781 c0,0,28.032,0,37.375,0c8.009,0,17.938-4.954,17.938-26.25c0-23.322-10.538-27.281-15.656-27.281c-2.336,0-9.344,0-9.344,0 s0,10.216,0,13.125c0,5.491-2.631,15.656-15.406,15.656c-15.91,0-19.476,0-26.532,0c-3.892,0-14.906,1.896-14.906,14.406 c0,14.475,0,18.265,0,24.219C28.366,100.497,31.562,109.923,55.397,109.923z M70.148,101.454c-2.662,0-4.813-2.151-4.813-4.813 s2.15-4.813,4.813-4.813c2.661,0,4.813,2.151,4.813,4.813S72.809,101.454,70.148,101.454z"/></clipPath>
</defs>
<g>
<path d="M 40.000,13.500 216.000,13.500 215.623,25.011 214.494,36.473 212.618,47.836 210.003,59.052 206.660,70.073 202.603,80.852 197.850,91.343 192.420,101.500 186.339,111.280 179.630,120.642 172.324,129.545 164.451,137.951 156.045,145.824 147.142,153.130 137.780,159.839 128.000,165.920 117.843,171.350 107.352,176.103 96.573,180.160 85.552,183.503 74.336,186.118 62.973,187.994 51.511,189.123 40.000,189.500 28.489,189.123 17.027,187.994 5.664,186.118 -5.552,183.503 -16.573,180.160 -27.352,176.103 -37.843,171.350 -48.000,165.920 -57.780,159.839 -67.142,153.130 -76.045,145.824 -84.451,137.951 -92.324,129.545 -99.630,120.642 -106.339,111.280 -112.420,101.500 -117.850,91.343 -122.603,80.852 -126.660,70.073 -130.003,59.052 -132.618,47.836 -134.494,36.473 -135.623,25.011 -136.000,13.500 -135.623,1.989 -134.494,-9.473 -132.618,-20.836 -130.003,-32.052 -126.660,-43.073 -122.603,-53.852 -117.850,-64.343 -112.420,-74.500 -106.339,-84.280 -99.630,-93.642 -92.324,-102.545 -84.451,-110.951 -76.045,-118.824 -67.142,-126.130 -57.780,-132.839 -48.000,-138.920 -37.843,-144.350 -27.352,-149.103 -16.573,-153.160 -5.552,-156.503 5.664,-159.118 17.027,-160.994 28.489,-162.123 40.000,-162.500 51.511,-162.123 62.973,-160.994 74.336,-159.118 85.552,-156.503 96.573,-153.160 107.352,-149.103 117.843,-144.350 128.000,-138.920 137.780,-132.839 147.142,-126.130 156.045,-118.824 164.451,-110.951 172.324,-102.545 179.630,-93.642 186.339,-84.280 192.420,-74.500 197.850,-64.343 202.603,-53.852 206.660,-43.073 210.003,-32.052 212.618,-20.836 214.494,-9.473 215.623,1.989 216.000,13.500 Z" fill="#F28D35" clip-path="url(#clipTop)"/>
<g clip-path="url(#clipTop)"><line x1="40.000" y1="13.500" x2="216.000" y2="13.500" stroke="#E64A2E" stroke-width="1.10" />
<line x1="40.000" y1="13.500" x2="213.172" y2="44.926" stroke="#E64A2E" stroke-width="1.10" />
<line x1="40.000" y1="13.500" x2="204.777" y2="75.342" stroke="#E64A2E" stroke-width="1.10" />
<line x1="40.000" y1="13.500" x2="191.087" y2="103.770" stroke="#E64A2E" stroke-width="1.10" />
<line x1="40.000" y1="13.500" x2="172.541" y2="129.297" stroke="#E64A2E" stroke-width="1.10" />
<line x1="40.000" y1="13.500" x2="149.734" y2="151.102" stroke="#E64A2E" stroke-width="1.10" />
<line x1="40.000" y1="13.500" x2="123.401" y2="168.485" stroke="#E64A2E" stroke-width="1.10" />
<line x1="40.000" y1="13.500" x2="94.387" y2="180.886" stroke="#E64A2E" stroke-width="1.10" />
<line x1="40.000" y1="13.500" x2="63.625" y2="187.907" stroke="#E64A2E" stroke-width="1.10" />
<line x1="40.000" y1="13.500" x2="32.104" y2="189.323" stroke="#E64A2E" stroke-width="1.10" />
<line x1="40.000" y1="13.500" x2="0.836" y2="185.087" stroke="#E64A2E" stroke-width="1.10" />
<line x1="40.000" y1="13.500" x2="-29.172" y2="175.337" stroke="#E64A2E" stroke-width="1.10" />
<line x1="40.000" y1="13.500" x2="-56.958" y2="160.385" stroke="#E64A2E" stroke-width="1.10" />
<line x1="40.000" y1="13.500" x2="-81.627" y2="140.712" stroke="#E64A2E" stroke-width="1.10" />
<line x1="40.000" y1="13.500" x2="-102.387" y2="116.950" stroke="#E64A2E" stroke-width="1.10" />
<line x1="40.000" y1="13.500" x2="-118.571" y2="89.864" stroke="#E64A2E" stroke-width="1.10" />
<line x1="40.000" y1="13.500" x2="-129.657" y2="60.322" stroke="#E64A2E" stroke-width="1.10" />
<line x1="40.000" y1="13.500" x2="-135.291" y2="29.277" stroke="#E64A2E" stroke-width="1.10" />
<line x1="40.000" y1="13.500" x2="-135.291" y2="-2.277" stroke="#E64A2E" stroke-width="1.10" />
<line x1="40.000" y1="13.500" x2="-129.657" y2="-33.322" stroke="#E64A2E" stroke-width="1.10" />
<line x1="40.000" y1="13.500" x2="-118.571" y2="-62.864" stroke="#E64A2E" stroke-width="1.10" />
<line x1="40.000" y1="13.500" x2="-102.387" y2="-89.950" stroke="#E64A2E" stroke-width="1.10" />
<line x1="40.000" y1="13.500" x2="-81.627" y2="-113.712" stroke="#E64A2E" stroke-width="1.10" />
<line x1="40.000" y1="13.500" x2="-56.958" y2="-133.385" stroke="#E64A2E" stroke-width="1.10" />
<line x1="40.000" y1="13.500" x2="-29.172" y2="-148.337" stroke="#E64A2E" stroke-width="1.10" />
<line x1="40.000" y1="13.500" x2="0.836" y2="-158.087" stroke="#E64A2E" stroke-width="1.10" />
<line x1="40.000" y1="13.500" x2="32.104" y2="-162.323" stroke="#E64A2E" stroke-width="1.10" />
<line x1="40.000" y1="13.500" x2="63.625" y2="-160.907" stroke="#E64A2E" stroke-width="1.10" />
<line x1="40.000" y1="13.500" x2="94.387" y2="-153.886" stroke="#E64A2E" stroke-width="1.10" />
<line x1="40.000" y1="13.500" x2="123.401" y2="-141.485" stroke="#E64A2E" stroke-width="1.10" />
<line x1="40.000" y1="13.500" x2="149.734" y2="-124.102" stroke="#E64A2E" stroke-width="1.10" />
<line x1="40.000" y1="13.500" x2="172.541" y2="-102.297" stroke="#E64A2E" stroke-width="1.10" />
<line x1="40.000" y1="13.500" x2="191.087" y2="-76.770" stroke="#E64A2E" stroke-width="1.10" />
<line x1="40.000" y1="13.500" x2="204.777" y2="-48.342" stroke="#E64A2E" stroke-width="1.10" />
<line x1="40.000" y1="13.500" x2="213.172" y2="-17.926" stroke="#E64A2E" stroke-width="1.10" />
<line x1="40.000" y1="13.500" x2="216.000" y2="13.500" stroke="#E64A2E" stroke-width="1.10" /></g>
<path d="M 80.000,30.000 95.339,205.330 92.149,205.580 88.955,205.772 85.759,205.906 82.560,205.981 79.360,205.999 76.161,205.958 72.962,205.859 69.767,205.702 66.574,205.487 63.386,205.214 60.203,204.883 57.027,204.494 53.859,204.048 50.699,203.544 47.549,202.982 44.410,202.364 41.282,201.688 38.167,200.956 35.066,200.167 31.980,199.322 28.910,198.421 25.857,197.465 22.821,196.453 19.804,195.386 16.808,194.264 13.832,193.088 10.878,191.858 7.947,190.575 5.040,189.239 2.157,187.850 -0.700,186.408 -3.530,184.915 -6.332,183.371 -9.106,181.776 -11.851,180.132 -14.565,178.437 -17.248,176.693 -19.898,174.901 -22.516,173.061 -25.100,171.174 -27.649,169.240 -30.163,167.260 -32.640,165.234 -35.080,163.164 -37.481,161.050 -39.844,158.893 -42.168,156.693 -44.451,154.451 -46.693,152.168 -48.893,149.844 -51.050,147.481 -53.164,145.080 -55.234,142.640 -57.260,140.163 -59.240,137.649 -61.174,135.100 -63.061,132.516 -64.901,129.898 -66.693,127.248 -68.437,124.565 -70.132,121.851 -71.776,119.106 -73.371,116.332 -74.915,113.530 -76.408,110.700 -77.850,107.843 -79.239,104.960 -80.575,102.053 -81.858,99.122 -83.088,96.168 -84.264,93.192 -85.386,90.196 -86.453,87.179 -87.465,84.143 -88.421,81.090 -89.322,78.020 -90.167,74.934 -90.956,71.833 -91.688,68.718 -92.364,65.590 -92.982,62.451 -93.544,59.301 -94.048,56.141 -94.494,52.973 -94.883,49.797 -95.214,46.614 -95.487,43.426 -95.702,40.233 -95.859,37.038 -95.958,33.839 -95.999,30.640 -95.981,27.440 -95.906,24.241 -95.772,21.045 -95.580,17.851 -95.330,14.661 Z" fill="#F9D94C" clip-path="url(#clipTop)"/>
<g clip-path="url(#clipTop)"><line x1="80.000" y1="30.000" x2="95.339" y2="205.330" stroke="#F28D35" stroke-width="1.10" />
<line x1="80.000" y1="30.000" x2="82.003" y2="205.989" stroke="#F28D35" stroke-width="1.10" />
<line x1="80.000" y1="30.000" x2="68.656" y2="205.634" stroke="#F28D35" stroke-width="1.10" />
<line x1="80.000" y1="30.000" x2="55.373" y2="204.269" stroke="#F28D35" stroke-width="1.10" />
<line x1="80.000" y1="30.000" x2="42.233" y2="201.900" stroke="#F28D35" stroke-width="1.10" />
<line x1="80.000" y1="30.000" x2="29.309" y2="198.542" stroke="#F28D35" stroke-width="1.10" />
<line x1="80.000" y1="30.000" x2="16.678" y2="194.214" stroke="#F28D35" stroke-width="1.10" />
<line x1="80.000" y1="30.000" x2="4.411" y2="188.941" stroke="#F28D35" stroke-width="1.10" />
<line x1="80.000" y1="30.000" x2="-7.421" y2="182.753" stroke="#F28D35" stroke-width="1.10" />
<line x1="80.000" y1="30.000" x2="-18.750" y2="175.686" stroke="#F28D35" stroke-width="1.10" />
<line x1="80.000" y1="30.000" x2="-29.510" y2="167.781" stroke="#F28D35" stroke-width="1.10" />
<line x1="80.000" y1="30.000" x2="-39.640" y2="159.082" stroke="#F28D35" stroke-width="1.10" />
<line x1="80.000" y1="30.000" x2="-49.082" y2="149.640" stroke="#F28D35" stroke-width="1.10" />
<line x1="80.000" y1="30.000" x2="-57.781" y2="139.510" stroke="#F28D35" stroke-width="1.10" />
<line x1="80.000" y1="30.000" x2="-65.686" y2="128.750" stroke="#F28D35" stroke-width="1.10" />
<line x1="80.000" y1="30.000" x2="-72.753" y2="117.421" stroke="#F28D35" stroke-width="1.10" />
<line x1="80.000" y1="30.000" x2="-78.941" y2="105.589" stroke="#F28D35" stroke-width="1.10" />
<line x1="80.000" y1="30.000" x2="-84.214" y2="93.322" stroke="#F28D35" stroke-width="1.10" />
<line x1="80.000" y1="30.000" x2="-88.542" y2="80.691" stroke="#F28D35" stroke-width="1.10" />
<line x1="80.000" y1="30.000" x2="-91.900" y2="67.767" stroke="#F28D35" stroke-width="1.10" />
<line x1="80.000" y1="30.000" x2="-94.269" y2="54.627" stroke="#F28D35" stroke-width="1.10" />
<line x1="80.000" y1="30.000" x2="-95.634" y2="41.344" stroke="#F28D35" stroke-width="1.10" />
<line x1="80.000" y1="30.000" x2="-95.989" y2="27.997" stroke="#F28D35" stroke-width="1.10" />
<line x1="80.000" y1="30.000" x2="-95.330" y2="14.661" stroke="#F28D35" stroke-width="1.10" /></g>
<path d="M 1.000,50.000 176.330,65.339 176.056,68.206 175.735,71.068 175.366,73.924 174.952,76.774 174.490,79.616 173.982,82.451 173.428,85.277 172.828,88.093 172.182,90.900 171.490,93.695 170.752,96.479 169.969,99.250 169.140,102.008 168.267,104.752 167.349,107.481 166.386,110.196 165.379,112.893 164.328,115.575 163.233,118.238 162.095,120.883 160.913,123.510 159.689,126.116 158.423,128.703 157.114,131.268 155.763,133.811 154.371,136.332 152.938,138.830 151.464,141.304 149.950,143.754 148.397,146.178 146.803,148.577 145.171,150.949 143.500,153.295 141.791,155.613 140.044,157.902 138.260,160.163 136.439,162.394 134.582,164.595 132.689,166.765 130.761,168.904 128.798,171.011 126.801,173.086 124.770,175.128 122.706,177.136 120.610,179.110 118.481,181.050 116.321,182.955 114.131,184.824 111.910,186.657 109.659,188.453 107.379,190.212 105.070,191.934 102.734,193.618 100.371,195.263 97.981,196.870 95.565,198.437 93.123,199.964 90.657,201.451 88.167,202.898 85.654,204.304 83.118,205.668 80.560,206.991 77.981,208.272 75.381,209.510 72.761,210.706 70.122,211.858 67.464,212.968 64.789,214.033 62.097,215.055 59.388,216.033 56.664,216.966 53.924,217.854 51.171,218.698 48.404,219.496 45.624,220.249 42.833,220.956 40.030,221.618 37.217,222.233 34.394,222.803 31.562,223.326 28.722,223.803 25.875,224.233 23.021,224.617 20.161,224.954 17.295,225.244 14.426,225.487 11.553,225.683 8.677,225.832 5.799,225.935 2.920,225.990 0.040,225.997 -2.839,225.958 -5.718,225.872 -8.595,225.738 -11.469,225.558 -14.339,225.330 Z" fill="#FFF2B8" clip-path="url(#clipTop)"/>
<g clip-path="url(#clipTop)"><line x1="1.000" y1="50.000" x2="176.330" y2="65.339" stroke="#F9D94C" stroke-width="1.10" />
<line x1="1.000" y1="50.000" x2="172.363" y2="90.135" stroke="#F9D94C" stroke-width="1.10" />
<line x1="1.000" y1="50.000" x2="164.907" y2="114.114" stroke="#F9D94C" stroke-width="1.10" />
<line x1="1.000" y1="50.000" x2="154.114" y2="136.788" stroke="#F9D94C" stroke-width="1.10" />
<line x1="1.000" y1="50.000" x2="140.204" y2="157.695" stroke="#F9D94C" stroke-width="1.10" />
<line x1="1.000" y1="50.000" x2="123.461" y2="176.410" stroke="#F9D94C" stroke-width="1.10" />
<line x1="1.000" y1="50.000" x2="104.224" y2="192.551" stroke="#F9D94C" stroke-width="1.10" />
<line x1="1.000" y1="50.000" x2="82.886" y2="205.790" stroke="#F9D94C" stroke-width="1.10" />
<line x1="1.000" y1="50.000" x2="59.882" y2="215.858" stroke="#F9D94C" stroke-width="1.10" />
<line x1="1.000" y1="50.000" x2="35.678" y2="222.550" stroke="#F9D94C" stroke-width="1.10" />
<line x1="1.000" y1="50.000" x2="10.769" y2="225.729" stroke="#F9D94C" stroke-width="1.10" />
<line x1="1.000" y1="50.000" x2="-14.339" y2="225.330" stroke="#F9D94C" stroke-width="1.10" /></g>
</g>
<g>
<path d="M 70.000,97.000 246.000,97.000 245.623,108.511 244.494,119.973 242.618,131.336 240.003,142.552 236.660,153.573 232.603,164.352 227.850,174.843 222.420,185.000 216.339,194.780 209.630,204.142 202.324,213.045 194.451,221.451 186.045,229.324 177.142,236.630 167.780,243.339 158.000,249.420 147.843,254.850 137.352,259.603 126.573,263.660 115.552,267.003 104.336,269.618 92.973,271.494 81.511,272.623 70.000,273.000 58.489,272.623 47.027,271.494 35.664,269.618 24.448,267.003 13.427,263.660 2.648,259.603 -7.843,254.850 -18.000,249.420 -27.780,243.339 -37.142,236.630 -46.045,229.324 -54.451,221.451 -62.324,213.045 -69.630,204.142 -76.339,194.780 -82.420,185.000 -87.850,174.843 -92.603,164.352 -96.660,153.573 -100.003,142.552 -102.618,131.336 -104.494,119.973 -105.623,108.511 -106.000,97.000 -105.623,85.489 -104.494,74.027 -102.618,62.664 -100.003,51.448 -96.660,40.427 -92.603,29.648 -87.850,19.157 -82.420,9.000 -76.339,-0.780 -69.630,-10.142 -62.324,-19.045 -54.451,-27.451 -46.045,-35.324 -37.142,-42.630 -27.780,-49.339 -18.000,-55.420 -7.843,-60.850 2.648,-65.603 13.427,-69.660 24.448,-73.003 35.664,-75.618 47.027,-77.494 58.489,-78.623 70.000,-79.000 81.511,-78.623 92.973,-77.494 104.336,-75.618 115.552,-73.003 126.573,-69.660 137.352,-65.603 147.843,-60.850 158.000,-55.420 167.780,-49.339 177.142,-42.630 186.045,-35.324 194.451,-27.451 202.324,-19.045 209.630,-10.142 216.339,-0.780 222.420,9.000 227.850,19.157 232.603,29.648 236.660,40.427 240.003,51.448 242.618,62.664 244.494,74.027 245.623,85.489 246.000,97.000 Z" fill="#3BB3C3" clip-path="url(#clipBot)"/>
<g clip-path="url(#clipBot)"><line x1="70.000" y1="97.000" x2="246.000" y2="97.000" stroke="#4DAF50" stroke-width="1.10" />
<line x1="70.000" y1="97.000" x2="243.172" y2="128.426" stroke="#4DAF50" stroke-width="1.10" />
<line x1="70.000" y1="97.000" x2="234.777" y2="158.842" stroke="#4DAF50" stroke-width="1.10" />
<line x1="70.000" y1="97.000" x2="221.087" y2="187.270" stroke="#4DAF50" stroke-width="1.10" />
<line x1="70.000" y1="97.000" x2="202.541" y2="212.797" stroke="#4DAF50" stroke-width="1.10" />
<line x1="70.000" y1="97.000" x2="179.734" y2="234.602" stroke="#4DAF50" stroke-width="1.10" />
<line x1="70.000" y1="97.000" x2="153.401" y2="251.985" stroke="#4DAF50" stroke-width="1.10" />
<line x1="70.000" y1="97.000" x2="124.387" y2="264.386" stroke="#4DAF50" stroke-width="1.10" />
<line x1="70.000" y1="97.000" x2="93.625" y2="271.407" stroke="#4DAF50" stroke-width="1.10" />
<line x1="70.000" y1="97.000" x2="62.104" y2="272.823" stroke="#4DAF50" stroke-width="1.10" />
<line x1="70.000" y1="97.000" x2="30.836" y2="268.587" stroke="#4DAF50" stroke-width="1.10" />
<line x1="70.000" y1="97.000" x2="0.828" y2="258.837" stroke="#4DAF50" stroke-width="1.10" />
<line x1="70.000" y1="97.000" x2="-26.958" y2="243.885" stroke="#4DAF50" stroke-width="1.10" />
<line x1="70.000" y1="97.000" x2="-51.627" y2="224.212" stroke="#4DAF50" stroke-width="1.10" />
<line x1="70.000" y1="97.000" x2="-72.387" y2="200.450" stroke="#4DAF50" stroke-width="1.10" />
<line x1="70.000" y1="97.000" x2="-88.571" y2="173.364" stroke="#4DAF50" stroke-width="1.10" />
<line x1="70.000" y1="97.000" x2="-99.657" y2="143.822" stroke="#4DAF50" stroke-width="1.10" />
<line x1="70.000" y1="97.000" x2="-105.291" y2="112.777" stroke="#4DAF50" stroke-width="1.10" />
<line x1="70.000" y1="97.000" x2="-105.291" y2="81.223" stroke="#4DAF50" stroke-width="1.10" />
<line x1="70.000" y1="97.000" x2="-99.657" y2="50.178" stroke="#4DAF50" stroke-width="1.10" />
<line x1="70.000" y1="97.000" x2="-88.571" y2="20.636" stroke="#4DAF50" stroke-width="1.10" />
<line x1="70.000" y1="97.000" x2="-72.387" y2="-6.450" stroke="#4DAF50" stroke-width="1.10" />
<line x1="70.000" y1="97.000" x2="-51.627" y2="-30.212" stroke="#4DAF50" stroke-width="1.10" />
<line x1="70.000" y1="97.000" x2="-26.958" y2="-49.885" stroke="#4DAF50" stroke-width="1.10" />
<line x1="70.000" y1="97.000" x2="0.828" y2="-64.837" stroke="#4DAF50" stroke-width="1.10" />
<line x1="70.000" y1="97.000" x2="30.836" y2="-74.587" stroke="#4DAF50" stroke-width="1.10" />
<line x1="70.000" y1="97.000" x2="62.104" y2="-78.823" stroke="#4DAF50" stroke-width="1.10" />
<line x1="70.000" y1="97.000" x2="93.625" y2="-77.407" stroke="#4DAF50" stroke-width="1.10" />
<line x1="70.000" y1="97.000" x2="124.387" y2="-70.386" stroke="#4DAF50" stroke-width="1.10" />
<line x1="70.000" y1="97.000" x2="153.401" y2="-57.985" stroke="#4DAF50" stroke-width="1.10" />
<line x1="70.000" y1="97.000" x2="179.734" y2="-40.602" stroke="#4DAF50" stroke-width="1.10" />
<line x1="70.000" y1="97.000" x2="202.541" y2="-18.797" stroke="#4DAF50" stroke-width="1.10" />
<line x1="70.000" y1="97.000" x2="221.087" y2="6.730" stroke="#4DAF50" stroke-width="1.10" />
<line x1="70.000" y1="97.000" x2="234.777" y2="35.158" stroke="#4DAF50" stroke-width="1.10" />
<line x1="70.000" y1="97.000" x2="243.172" y2="65.574" stroke="#4DAF50" stroke-width="1.10" />
<line x1="70.000" y1="97.000" x2="246.000" y2="97.000" stroke="#4DAF50" stroke-width="1.10" /></g>
<path d="M 30.000,81.500 14.661,-93.830 17.691,-94.069 20.725,-94.255 23.762,-94.389 26.800,-94.471 29.840,-94.500 32.880,-94.476 35.918,-94.400 38.955,-94.272 41.990,-94.091 45.021,-93.858 48.047,-93.572 51.068,-93.235 54.082,-92.845 57.090,-92.403 60.089,-91.909 63.080,-91.363 66.060,-90.766 69.030,-90.118 71.988,-89.418 74.934,-88.667 77.866,-87.866 80.784,-87.014 83.687,-86.112 86.573,-85.160 89.443,-84.158 92.295,-83.106 95.129,-82.006 97.943,-80.857 100.737,-79.659 103.510,-78.413 106.261,-77.120 108.989,-75.779 111.693,-74.392 114.373,-72.958 117.028,-71.477 119.657,-69.951 122.260,-68.380 124.834,-66.765 127.381,-65.105 129.898,-63.401 132.386,-61.654 134.843,-59.865 137.269,-58.033 139.663,-56.159 142.024,-54.245 144.352,-52.290 146.645,-50.295 148.904,-48.261 151.127,-46.188 153.314,-44.077 155.465,-41.928 157.578,-39.743 159.653,-37.522 161.689,-35.265 163.686,-32.973 165.643,-30.647 167.560,-28.288 169.435,-25.896 171.269,-23.472 173.061,-21.016 174.810,-18.530 176.516,-16.014 178.178,-13.469 179.797,-10.896 181.370,-8.295 182.898,-5.667 184.381,-3.014 185.817,-0.335 187.207,2.368 188.551,5.095 189.847,7.845 191.095,10.617 192.295,13.409 193.447,16.222 194.550,19.055 195.604,21.906 196.608,24.775 197.563,27.661 198.468,30.563 199.322,33.480 200.127,36.412 200.880,39.357 201.582,42.314 202.233,45.283 202.833,48.263 203.381,51.253 203.878,54.252 204.323,57.259 204.715,60.273 205.056,63.294 205.344,66.320 205.580,69.351 205.764,72.385 205.895,75.422 205.974,78.460 206.000,81.500 Z" fill="#3776AB" clip-path="url(#clipBot)"/>
<g clip-path="url(#clipBot)"><line x1="30.000" y1="81.500" x2="14.661" y2="-93.830" stroke="#3BB3C3" stroke-width="1.10" />
<line x1="30.000" y1="81.500" x2="27.329" y2="-94.480" stroke="#3BB3C3" stroke-width="1.10" />
<line x1="30.000" y1="81.500" x2="40.011" y2="-94.215" stroke="#3BB3C3" stroke-width="1.10" />
<line x1="30.000" y1="81.500" x2="52.642" y2="-93.038" stroke="#3BB3C3" stroke-width="1.10" />
<line x1="30.000" y1="81.500" x2="65.154" y2="-90.953" stroke="#3BB3C3" stroke-width="1.10" />
<line x1="30.000" y1="81.500" x2="77.484" y2="-87.973" stroke="#3BB3C3" stroke-width="1.10" />
<line x1="30.000" y1="81.500" x2="89.568" y2="-84.113" stroke="#3BB3C3" stroke-width="1.10" />
<line x1="30.000" y1="81.500" x2="101.342" y2="-79.392" stroke="#3BB3C3" stroke-width="1.10" />
<line x1="30.000" y1="81.500" x2="112.745" y2="-73.836" stroke="#3BB3C3" stroke-width="1.10" />
<line x1="30.000" y1="81.500" x2="123.718" y2="-67.473" stroke="#3BB3C3" stroke-width="1.10" />
<line x1="30.000" y1="81.500" x2="134.205" y2="-60.335" stroke="#3BB3C3" stroke-width="1.10" />
<line x1="30.000" y1="81.500" x2="144.150" y2="-52.461" stroke="#3BB3C3" stroke-width="1.10" />
<line x1="30.000" y1="81.500" x2="153.503" y2="-43.892" stroke="#3BB3C3" stroke-width="1.10" />
<line x1="30.000" y1="81.500" x2="162.214" y2="-34.670" stroke="#3BB3C3" stroke-width="1.10" />
<line x1="30.000" y1="81.500" x2="170.238" y2="-24.846" stroke="#3BB3C3" stroke-width="1.10" />
<line x1="30.000" y1="81.500" x2="177.533" y2="-14.468" stroke="#3BB3C3" stroke-width="1.10" />
<line x1="30.000" y1="81.500" x2="184.062" y2="-3.593" stroke="#3BB3C3" stroke-width="1.10" />
<line x1="30.000" y1="81.500" x2="189.791" y2="7.725" stroke="#3BB3C3" stroke-width="1.10" />
<line x1="30.000" y1="81.500" x2="194.690" y2="19.426" stroke="#3BB3C3" stroke-width="1.10" />
<line x1="30.000" y1="81.500" x2="198.733" y2="31.449" stroke="#3BB3C3" stroke-width="1.10" />
<line x1="30.000" y1="81.500" x2="201.900" y2="43.733" stroke="#3BB3C3" stroke-width="1.10" />
<line x1="30.000" y1="81.500" x2="204.174" y2="56.212" stroke="#3BB3C3" stroke-width="1.10" />
<line x1="30.000" y1="81.500" x2="205.543" y2="68.823" stroke="#3BB3C3" stroke-width="1.10" />
<line x1="30.000" y1="81.500" x2="206.000" y2="81.500" stroke="#3BB3C3" stroke-width="1.10" /></g>
<path d="M 110.000,61.000 -63.326,30.438 -62.833,27.763 -62.299,25.096 -61.724,22.438 -61.107,19.789 -60.450,17.150 -59.752,14.521 -59.013,11.904 -58.235,9.298 -57.416,6.704 -56.557,4.124 -55.658,1.557 -54.719,-0.996 -53.742,-3.534 -52.725,-6.057 -51.669,-8.563 -50.575,-11.053 -49.442,-13.526 -48.272,-15.981 -47.063,-18.417 -45.817,-20.835 -44.534,-23.233 -43.214,-25.611 -41.857,-27.968 -40.464,-30.304 -39.036,-32.618 -37.571,-34.910 -36.071,-37.179 -34.537,-39.425 -32.968,-41.646 -31.365,-43.843 -29.728,-46.015 -28.057,-48.161 -26.354,-50.282 -24.618,-52.376 -22.850,-54.442 -21.050,-56.481 -19.219,-58.492 -17.357,-60.475 -15.465,-62.428 -13.542,-64.353 -11.591,-66.247 -9.610,-68.110 -7.600,-69.943 -5.563,-71.745 -3.498,-73.515 -1.406,-75.253 0.713,-76.958 2.858,-78.630 5.028,-80.269 7.224,-81.874 9.444,-83.446 11.688,-84.982 13.956,-86.484 16.246,-87.950 18.559,-89.381 20.894,-90.776 23.250,-92.135 25.627,-93.458 28.024,-94.743 30.440,-95.991 32.875,-97.202 35.329,-98.375 37.801,-99.510 40.290,-100.606 42.796,-101.664 45.317,-102.683 47.854,-103.663 50.406,-104.604 52.972,-105.505 55.552,-106.366 58.145,-107.188 60.750,-107.969 63.367,-108.710 65.995,-109.410 68.634,-110.070 71.282,-110.688 73.940,-111.266 76.606,-111.803 79.280,-112.298 81.962,-112.752 84.650,-113.165 87.345,-113.536 90.044,-113.865 92.749,-114.153 95.458,-114.398 98.170,-114.602 100.885,-114.764 103.602,-114.884 106.321,-114.962 109.040,-114.997 111.760,-114.991 114.479,-114.943 117.197,-114.853 119.914,-114.721 122.628,-114.546 125.339,-114.330 Z" fill="#1A588D" clip-path="url(#clipBot)"/>
<g clip-path="url(#clipBot)"><line x1="110.000" y1="61.000" x2="-63.326" y2="30.438" stroke="#3776AB" stroke-width="1.10" />
<line x1="110.000" y1="61.000" x2="-57.643" y2="7.410" stroke="#3776AB" stroke-width="1.10" />
<line x1="110.000" y1="61.000" x2="-48.915" y2="-14.644" stroke="#3776AB" stroke-width="1.10" />
<line x1="110.000" y1="61.000" x2="-37.301" y2="-35.324" stroke="#3776AB" stroke-width="1.10" />
<line x1="110.000" y1="61.000" x2="-23.012" y2="-54.255" stroke="#3776AB" stroke-width="1.10" />
<line x1="110.000" y1="61.000" x2="-6.307" y2="-71.093" stroke="#3776AB" stroke-width="1.10" />
<line x1="110.000" y1="61.000" x2="12.510" y2="-85.532" stroke="#3776AB" stroke-width="1.10" />
<line x1="110.000" y1="61.000" x2="33.098" y2="-97.310" stroke="#3776AB" stroke-width="1.10" />
<line x1="110.000" y1="61.000" x2="55.082" y2="-106.213" stroke="#3776AB" stroke-width="1.10" />
<line x1="110.000" y1="61.000" x2="78.064" y2="-112.078" stroke="#3776AB" stroke-width="1.10" />
<line x1="110.000" y1="61.000" x2="101.626" y2="-114.801" stroke="#3776AB" stroke-width="1.10" />
<line x1="110.000" y1="61.000" x2="125.339" y2="-114.330" stroke="#3776AB" stroke-width="1.10" /></g>
</g>
<path d="M55.023-0.077c-25.971,0-26.25,10.081-26.25,12.156c0,3.148,0,12.594,0,12.594h26.75v3.781 c0,0-27.852,0-37.375,0c-7.949,0-17.938,4.833-17.938,26.25c0,19.673,7.792,27.281,15.656,27.281c2.335,0,9.344,0,9.344,0 s0-9.765,0-13.125c0-5.491,2.721-15.656,15.406-15.656c15.91,0,19.971,0,26.531,0c3.902,0,14.906-1.696,14.906-14.406 c0-13.452,0-17.89,0-24.219C82.054,11.426,81.515-0.077,55.023-0.077z M40.273,8.392c2.662,0,4.813,2.15,4.813,4.813 c0,2.661-2.151,4.813-4.813,4.813s-4.813-2.151-4.813-4.813C35.46,10.542,37.611,8.392,40.273,8.392z" fill="none" stroke="#260F80" stroke-width="1.32" />
<path d="M55.397,109.923c25.959,0,26.282-10.271,26.282-12.156c0-3.148,0-12.594,0-12.594H54.897v-3.781 c0,0,28.032,0,37.375,0c8.009,0,17.938-4.954,17.938-26.25c0-23.322-10.538-27.281-15.656-27.281c-2.336,0-9.344,0-9.344,0 s0,10.216,0,13.125c0,5.491-2.631,15.656-15.406,15.656c-15.91,0-19.476,0-26.532,0c-3.892,0-14.906,1.896-14.906,14.406 c0,14.475,0,18.265,0,24.219C28.366,100.497,31.562,109.923,55.397,109.923z M70.148,101.454c-2.662,0-4.813-2.151-4.813-4.813 s2.15-4.813,4.813-4.813c2.661,0,4.813,2.151,4.813,4.813S72.809,101.454,70.148,101.454z" fill="none" stroke="#260F80" stroke-width="1.32" />

  </g>
  <text x="630" y="270" font-family="Fira Sans, Arial, sans-serif" font-weight="600" font-style="italic" font-size="200" fill="#260F80">PHITS</text>
  <text x="630" y="500" font-family="Fira Sans, Arial, sans-serif" font-weight="600" font-style="italic" font-size="200" fill="#260F80">Tools</text>
</svg>
